<!DOCTYPE svg PUBLIC "-//W3C//DTD SVG 1.1//EN" "http://www.w3.org/Graphics/SVG/1.1/DTD/svg11.dtd">
<!-- Uploaded to: SVG Repo, www.svgrepo.com, Transformed by: SVG Repo Mixer Tools -->
<svg width="800px" height="800px" viewBox="0 0 24 24" fill="none" xmlns="http://www.w3.org/2000/svg" stroke="#ffffff">
<g id="SVGRepo_bgCarrier" stroke-width="0"/>
<g id="SVGRepo_tracerCarrier" stroke-linecap="round" stroke-linejoin="round"/>
<g id="SVGRepo_iconCarrier"> <path d="M8.5 14.6667C8.5 15.9553 9.54467 17 10.8333 17H13C14.3807 17 15.5 15.8807 15.5 14.5C15.5 13.1193 14.3807 12 13 12H11C9.61929 12 8.5 10.8807 8.5 9.5C8.5 8.11929 9.61929 7 11 7H13.1667C14.4553 7 15.5 8.04467 15.5 9.33333M12 5.5V7M12 17V18.5M22 12C22 17.5228 17.5228 22 12 22C6.47715 22 2 17.5228 2 12C2 6.47715 6.47715 2 12 2C17.5228 2 22 6.47715 22 12Z" stroke="#ffffff" stroke-width="1.344" stroke-linecap="round" stroke-linejoin="round"/> </g>
</svg>